<svg xmlns="http://www.w3.org/2000/svg" width="256" height="256" viewBox="0 0 256 256">
<g>
<path d="M 0.13 194.75 L 0.00 256.00 L 0.00 0.00 L 256.00 0.00 L 194.75 0.16 C161.06,0.25 135.07,0.47 137.00,0.65 C176.53,4.42 211.13,24.82 232.54,56.99 C261.82,100.97 260.88,157.44 230.14,201.00 C224.23,209.39 209.31,224.33 201.00,230.18 C174.02,249.20 140.55,257.34 109.00,252.55 C85.70,249.01 67.44,241.13 48.50,226.46 C22.54,206.34 4.49,174.13 1.15,142.00 C0.54,136.19 0.22,152.86 0.13,194.75 ZM 0.13 60.75 C0.22,100.00 0.56,118.67 1.11,113.51 C4.77,78.67 23.32,46.28 51.59,25.36 C70.08,11.67 93.28,2.91 117.00,0.65 C118.93,0.47 93.39,0.25 60.25,0.16 L 0.00 0.00 ZM 70.03 231.38 C73.59,233.36 77.00,234.98 77.60,234.99 C78.21,234.99 84.08,233.22 90.65,231.03 C119.09,221.60 136.50,221.81 166.44,231.97 C171.35,233.64 176.08,235.00 176.94,235.00 C179.31,235.00 194.62,225.50 202.50,219.15 C209.35,213.62 209.44,213.50 206.50,213.27 C194.75,212.35 184.26,210.07 168.50,205.00 C158.60,201.81 149.04,198.90 147.25,198.52 L 144.00 197.84 L 144.00 215.00 L 109.00 215.00 L 109.00 197.96 L 106.25 198.62 C104.74,198.98 96.10,201.70 87.06,204.66 C70.42,210.12 57.52,212.97 49.12,213.04 L 44.50 213.08 L 48.50 216.59 C53.85,221.29 62.14,226.98 70.03,231.38 ZM 192.50 175.94 C200.74,177.30 215.32,177.10 223.62,175.51 C237.59,172.83 237.24,173.09 240.24,163.74 C243.07,154.90 245.57,143.24 244.80,142.47 C244.54,142.21 241.73,142.89 238.56,143.98 C224.17,148.93 205.17,150.34 190.52,147.54 C186.31,146.73 176.03,143.83 167.68,141.09 C159.33,138.36 150.59,135.69 148.25,135.17 L 144.00 134.21 L 144.00 161.92 L 148.25 162.98 C150.59,163.56 160.38,166.53 170.00,169.58 C179.62,172.62 189.75,175.49 192.50,175.94 ZM 30.50 175.60 C34.56,176.53 40.70,176.85 49.50,176.58 C62.72,176.17 71.05,174.41 86.00,168.87 C89.03,167.75 95.32,165.81 100.00,164.57 L 108.50 162.31 L 108.78 148.65 C109.04,135.82 108.94,135.00 107.16,135.00 C106.12,135.00 97.67,137.48 88.38,140.50 C79.10,143.53 67.96,146.68 63.64,147.50 C48.79,150.33 31.99,149.14 16.04,144.11 C12.49,143.00 9.41,142.25 9.21,142.46 C8.58,143.09 10.92,153.91 13.71,163.25 C16.64,173.09 15.30,172.11 30.50,175.60 ZM 195.50 208.28 C197.15,208.51 201.99,208.77 206.25,208.85 L 214.00 209.00 L 220.27 201.06 C227.47,191.96 236.30,176.29 233.66,177.30 C227.41,179.70 213.69,181.20 203.00,180.66 C190.41,180.03 186.73,179.20 164.50,172.05 C156.25,169.40 148.26,166.94 146.75,166.60 L 144.00 165.96 L 144.00 193.70 L 152.74 196.01 C157.55,197.28 164.93,199.57 169.14,201.11 C176.93,203.95 190.06,207.53 195.50,208.28 ZM 34.37 201.56 L 40.24 209.00 L 47.37 208.97 C57.71,208.91 67.47,206.90 85.00,201.18 C93.53,198.41 102.41,195.63 104.75,195.03 L 109.00 193.92 L 109.00 180.46 C109.00,167.50 108.92,167.00 106.92,167.00 C105.78,167.00 98.02,169.22 89.67,171.94 C67.24,179.24 63.65,180.04 50.50,180.65 C40.74,181.10 36.73,180.83 29.00,179.19 C23.77,178.08 19.39,177.28 19.27,177.41 C18.61,178.05 29.25,195.07 34.37,201.56 ZM 88.00 14.48 L 88.00 37.00 L 166.00 37.00 L 166.00 14.28 L 157.75 12.14 C135.89,6.45 115.50,6.63 94.25,12.69 ZM 170.00 91.00 L 170.00 108.00 L 244.00 108.00 L 244.00 105.61 C244.00,102.58 239.78,87.98 237.11,81.75 L 235.07 77.00 L 192.00 77.00 L 192.00 91.00 ZM 10.00 106.24 C10.00,107.89 12.37,108.00 47.00,108.00 L 84.00 108.00 L 84.00 91.00 L 69.00 91.00 C58.56,91.00 54.00,90.66 54.00,89.88 C54.00,89.26 55.77,86.10 57.94,82.86 L 61.87 76.96 L 40.32 77.23 L 18.76 77.50 L 16.76 82.50 C14.35,88.51 10.00,103.78 10.00,106.24 ZM 47.00 41.00 L 47.00 73.00 L 65.21 73.00 L 70.20 69.03 C75.96,64.44 83.81,60.51 90.11,59.06 C92.53,58.50 101.36,58.04 109.75,58.02 L 125.00 58.00 L 125.00 41.00 ZM 189.50 143.34 C193.35,144.16 198.86,144.87 201.75,144.92 L 207.00 145.00 L 207.00 112.00 L 144.00 112.00 L 144.00 129.92 L 148.25 131.00 C150.59,131.60 159.25,134.28 167.50,136.97 C175.75,139.65 185.65,142.52 189.50,143.34 ZM 47.00 112.00 L 47.00 145.00 L 51.41 145.00 C58.74,145.00 70.11,142.39 88.77,136.42 C98.52,133.30 107.06,130.59 107.75,130.40 C108.63,130.16 109.00,127.41 109.00,121.03 L 109.00 112.00 ZM 192.00 58.00 L 192.00 73.00 L 207.00 73.00 L 207.00 41.00 L 129.00 41.00 L 129.00 58.00 ZM 211.00 112.00 L 211.00 145.26 L 216.81 144.60 C223.93,143.80 237.75,140.55 242.49,138.57 L 246.00 137.10 L 246.00 126.13 C246.00,120.10 245.73,114.45 245.39,113.58 C244.87,112.23 242.37,112.00 227.89,112.00 ZM 30.00 143.49 C33.58,144.22 37.96,144.85 39.75,144.91 L 43.00 145.00 L 43.00 112.00 L 9.12 112.00 L 8.50 116.25 C8.16,118.59 8.02,124.31 8.19,128.96 L 8.50 137.42 L 16.00 139.79 C20.12,141.10 26.42,142.76 30.00,143.49 ZM 107.36 244.52 C123.44,247.44 146.19,245.90 162.00,240.82 C170.80,237.99 170.93,237.86 166.43,236.23 C146.69,229.08 129.75,226.66 115.00,228.87 C106.62,230.13 83.85,236.95 84.50,238.01 C85.13,239.03 99.25,243.05 107.36,244.52 ZM 170.00 16.05 L 170.00 37.00 L 187.12 37.00 C187.69,37.00 188.24,37.00 188.77,37.00 C198.10,37.00 202.48,37.01 202.81,35.86 C203.10,34.84 200.18,32.92 194.69,29.29 C194.33,29.06 193.97,28.82 193.59,28.57 C185.84,23.45 177.64,18.96 172.44,16.98 ZM 52.50 34.43 L 49.50 36.93 L 66.75 36.96 L 84.00 37.00 L 84.00 16.05 L 81.56 16.98 C74.14,19.80 59.55,28.56 52.50,34.43 ZM 144.00 91.00 L 144.00 108.00 L 166.00 108.00 L 166.00 91.00 ZM 211.09 42.50 L 211.00 73.00 L 233.05 73.00 L 231.38 69.75 C228.56,64.27 220.42,52.77 215.63,47.50 ZM 23.55 68.25 L 20.81 73.00 L 43.00 73.00 L 42.94 42.50 L 38.94 47.00 C33.95,52.61 27.14,62.01 23.55,68.25 ZM 88.00 91.00 L 88.00 108.00 L 109.00 108.00 L 109.00 91.00 Z" fill="rgb(10,10,10)"/>
<path d="M 0.13 194.75 C0.22,152.86 0.54,136.19 1.15,142.00 C4.49,174.13 22.54,206.34 48.50,226.46 C67.44,241.13 85.70,249.01 109.00,252.55 C140.55,257.34 174.02,249.20 201.00,230.18 C209.31,224.33 224.23,209.39 230.14,201.00 C260.88,157.44 261.82,100.97 232.54,56.99 C211.13,24.82 176.53,4.42 137.00,0.65 C135.07,0.47 161.06,0.25 194.75,0.16 L 256.00 0.00 L 256.00 128.00 L 256.00 256.00 L 128.00 256.00 L 0.00 256.00 L 0.13 194.75 ZM 107.36 244.52 C99.25,243.05 85.13,239.03 84.50,238.01 C83.85,236.95 106.62,230.13 115.00,228.87 C129.75,226.66 146.69,229.08 166.43,236.23 C170.93,237.86 170.80,237.99 162.00,240.82 C146.19,245.90 123.44,247.44 107.36,244.52 ZM 70.03 231.38 C62.14,226.98 53.85,221.29 48.50,216.59 L 44.50 213.08 L 49.12 213.04 C57.52,212.97 70.42,210.12 87.06,204.66 C96.10,201.70 104.74,198.98 106.25,198.62 L 109.00 197.96 L 109.00 206.48 L 109.00 215.00 L 126.50 215.00 L 144.00 215.00 L 144.00 206.42 L 144.00 197.84 L 147.25 198.52 C149.04,198.90 158.60,201.81 168.50,205.00 C184.26,210.07 194.75,212.35 206.50,213.27 C209.44,213.50 209.35,213.62 202.50,219.15 C194.62,225.50 179.31,235.00 176.94,235.00 C176.08,235.00 171.35,233.64 166.44,231.97 C136.50,221.81 119.09,221.60 90.65,231.03 C84.08,233.22 78.21,234.99 77.60,234.99 C77.00,234.98 73.59,233.36 70.03,231.38 ZM 34.37 201.56 C29.25,195.07 18.61,178.05 19.27,177.41 C19.39,177.28 23.77,178.08 29.00,179.19 C36.73,180.83 40.74,181.10 50.50,180.65 C63.65,180.04 67.24,179.24 89.67,171.94 C98.02,169.22 105.78,167.00 106.92,167.00 C108.92,167.00 109.00,167.50 109.00,180.46 L 109.00 193.92 L 104.75 195.03 C102.41,195.63 93.53,198.41 85.00,201.18 C67.47,206.90 57.71,208.91 47.37,208.97 L 40.24 209.00 L 34.37 201.56 ZM 195.50 208.28 C190.06,207.53 176.93,203.95 169.14,201.11 C164.93,199.57 157.55,197.28 152.74,196.01 L 144.00 193.70 L 144.00 179.83 L 144.00 165.96 L 146.75 166.60 C148.26,166.94 156.25,169.40 164.50,172.05 C186.73,179.20 190.41,180.03 203.00,180.66 C213.69,181.20 227.41,179.70 233.66,177.30 C236.30,176.29 227.47,191.96 220.27,201.06 L 214.00 209.00 L 206.25 208.85 C201.99,208.77 197.15,208.51 195.50,208.28 ZM 30.50 175.60 C15.30,172.11 16.64,173.09 13.71,163.25 C10.92,153.91 8.58,143.09 9.21,142.46 C9.41,142.25 12.49,143.00 16.04,144.11 C31.99,149.14 48.79,150.33 63.64,147.50 C67.96,146.68 79.10,143.53 88.38,140.50 C97.67,137.48 106.12,135.00 107.16,135.00 C108.94,135.00 109.04,135.82 108.78,148.65 L 108.50 162.31 L 100.00 164.57 C95.32,165.81 89.03,167.75 86.00,168.87 C71.05,174.41 62.72,176.17 49.50,176.58 C40.70,176.85 34.56,176.53 30.50,175.60 ZM 192.50 175.94 C189.75,175.49 179.62,172.62 170.00,169.58 C160.38,166.53 150.59,163.56 148.25,162.98 L 144.00 161.92 L 144.00 148.07 L 144.00 134.21 L 148.25 135.17 C150.59,135.69 159.33,138.36 167.68,141.09 C176.03,143.83 186.31,146.73 190.52,147.54 C205.17,150.34 224.17,148.93 238.56,143.98 C241.73,142.89 244.54,142.21 244.80,142.47 C245.57,143.24 243.07,154.90 240.24,163.74 C237.24,173.09 237.59,172.83 223.62,175.51 C215.32,177.10 200.74,177.30 192.50,175.94 ZM 30.00 143.49 C26.42,142.76 20.12,141.10 16.00,139.79 L 8.50 137.42 L 8.19 128.96 C8.02,124.31 8.16,118.59 8.50,116.25 L 9.12 112.00 L 26.06 112.00 L 43.00 112.00 L 43.00 128.50 L 43.00 145.00 L 39.75 144.91 C37.96,144.85 33.58,144.22 30.00,143.49 ZM 47.00 128.50 L 47.00 112.00 L 78.00 112.00 L 109.00 112.00 L 109.00 121.03 C109.00,127.41 108.63,130.16 107.75,130.40 C107.06,130.59 98.52,133.30 88.77,136.42 C70.11,142.39 58.74,145.00 51.41,145.00 L 47.00 145.00 L 47.00 128.50 ZM 189.50 143.34 C185.65,142.52 175.75,139.65 167.50,136.97 C159.25,134.28 150.59,131.60 148.25,131.00 L 144.00 129.92 L 144.00 120.96 L 144.00 112.00 L 175.50 112.00 L 207.00 112.00 L 207.00 128.50 L 207.00 145.00 L 201.75 144.92 C198.86,144.87 193.35,144.16 189.50,143.34 ZM 211.00 128.63 L 211.00 112.00 L 227.89 112.00 C242.37,112.00 244.87,112.23 245.39,113.58 C245.73,114.45 246.00,120.10 246.00,126.13 L 246.00 137.10 L 242.49 138.57 C237.75,140.55 223.93,143.80 216.81,144.60 L 211.00 145.26 L 211.00 128.63 ZM 0.13 60.75 L 0.00 0.00 L 60.25 0.16 C93.39,0.25 118.93,0.47 117.00,0.65 C93.28,2.91 70.08,11.67 51.59,25.36 C23.32,46.28 4.77,78.67 1.11,113.51 C0.56,118.67 0.22,100.00 0.13,60.75 ZM 10.00 106.24 C10.00,103.78 14.35,88.51 16.76,82.50 L 18.76 77.50 L 40.32 77.23 L 61.87 76.96 L 57.94 82.86 C55.77,86.10 54.00,89.26 54.00,89.88 C54.00,90.66 58.56,91.00 69.00,91.00 L 84.00 91.00 L 84.00 99.50 L 84.00 108.00 L 47.00 108.00 C12.37,108.00 10.00,107.89 10.00,106.24 ZM 88.00 99.50 L 88.00 91.00 L 98.50 91.00 L 109.00 91.00 L 109.00 99.50 L 109.00 108.00 L 98.50 108.00 L 88.00 108.00 L 88.00 99.50 ZM 144.00 99.50 L 144.00 91.00 L 155.00 91.00 L 166.00 91.00 L 166.00 99.50 L 166.00 108.00 L 155.00 108.00 L 144.00 108.00 L 144.00 99.50 ZM 170.00 99.50 L 170.00 91.00 L 181.00 91.00 L 192.00 91.00 L 192.00 84.00 L 192.00 77.00 L 213.54 77.00 L 235.07 77.00 L 237.11 81.75 C239.78,87.98 244.00,102.58 244.00,105.61 L 244.00 108.00 L 207.00 108.00 L 170.00 108.00 L 170.00 99.50 ZM 23.55 68.25 C27.14,62.01 33.95,52.61 38.94,47.00 L 42.94 42.50 L 42.97 57.75 L 43.00 73.00 L 31.90 73.00 L 20.81 73.00 L 23.55 68.25 ZM 47.00 57.00 L 47.00 41.00 L 86.00 41.00 L 125.00 41.00 L 125.00 49.50 L 125.00 58.00 L 109.75 58.02 C101.36,58.04 92.53,58.50 90.11,59.06 C83.81,60.51 75.96,64.44 70.20,69.03 L 65.21 73.00 L 56.11 73.00 L 47.00 73.00 L 47.00 57.00 ZM 192.00 65.50 L 192.00 58.00 L 160.50 58.00 L 129.00 58.00 L 129.00 49.50 L 129.00 41.00 L 168.00 41.00 L 207.00 41.00 L 207.00 57.00 L 207.00 73.00 L 199.50 73.00 L 192.00 73.00 L 192.00 65.50 ZM 211.04 57.75 L 211.09 42.50 L 215.63 47.50 C220.42,52.77 228.56,64.27 231.38,69.75 L 233.05 73.00 L 222.03 73.00 L 211.00 73.00 L 211.04 57.75 ZM 52.50 34.43 C59.55,28.56 74.14,19.80 81.56,16.98 L 84.00 16.05 L 84.00 26.52 L 84.00 37.00 L 66.75 36.96 L 49.50 36.93 L 52.50 34.43 ZM 88.00 25.74 L 88.00 14.48 L 94.25 12.69 C115.50,6.63 135.89,6.45 157.75,12.14 L 166.00 14.28 L 166.00 25.64 L 166.00 37.00 L 127.00 37.00 L 88.00 37.00 L 88.00 25.74 ZM 170.00 26.52 L 170.00 16.05 L 172.44 16.98 C177.64,18.96 185.84,23.45 193.59,28.57 C206.74,37.25 206.93,37.00 187.12,37.00 L 170.00 37.00 L 170.00 26.52 Z" fill="rgb(251,251,251)"/>
</g>
</svg>